<mxfile host="app.diagrams.net" modified="2022-10-06T08:27:36.766Z" agent="5.0 (Windows)" etag="GcEYxYx3RjcTS62rIjID" version="20.2.6" type="github">
  <diagram id="P4QvcceifejWkb0PRavH" name="Page-1">
    <mxGraphModel dx="782" dy="412" grid="1" gridSize="10" guides="1" tooltips="1" connect="1" arrows="1" fold="1" page="1" pageScale="1" pageWidth="850" pageHeight="1100" math="0" shadow="0">
      <root>
        <mxCell id="0" />
        <mxCell id="1" parent="0" />
        <mxCell id="U7zukvNQXQ73jjzzrtai-1" value="" style="rounded=0;whiteSpace=wrap;html=1;fillColor=#dae8fc;strokeColor=#6c8ebf;" vertex="1" parent="1">
          <mxGeometry x="80" y="70" width="660" height="350" as="geometry" />
        </mxCell>
        <mxCell id="U7zukvNQXQ73jjzzrtai-2" value="USE CASE 1 FLEXOM AGRESSO ARK DATA" style="text;html=1;strokeColor=none;fillColor=none;align=center;verticalAlign=middle;whiteSpace=wrap;rounded=0;fontStyle=1" vertex="1" parent="1">
          <mxGeometry x="245" y="40" width="360" height="30" as="geometry" />
        </mxCell>
        <mxCell id="U7zukvNQXQ73jjzzrtai-3" value="Agresso Instance" style="text;html=1;strokeColor=none;fillColor=none;align=center;verticalAlign=middle;whiteSpace=wrap;rounded=0;fontStyle=1" vertex="1" parent="1">
          <mxGeometry x="90" y="90" width="60" height="30" as="geometry" />
        </mxCell>
        <mxCell id="U7zukvNQXQ73jjzzrtai-7" value="" style="dashed=0;outlineConnect=0;html=1;align=center;labelPosition=center;verticalLabelPosition=bottom;verticalAlign=top;shape=mxgraph.weblogos.oracle;fillColor=#FF0000;strokeColor=none" vertex="1" parent="1">
          <mxGeometry x="640" y="380" width="90" height="23" as="geometry" />
        </mxCell>
        <mxCell id="U7zukvNQXQ73jjzzrtai-11" style="edgeStyle=orthogonalEdgeStyle;rounded=0;orthogonalLoop=1;jettySize=auto;html=1;entryX=0;entryY=0.75;entryDx=0;entryDy=0;" edge="1" parent="1" source="U7zukvNQXQ73jjzzrtai-8" target="U7zukvNQXQ73jjzzrtai-9">
          <mxGeometry relative="1" as="geometry" />
        </mxCell>
        <mxCell id="U7zukvNQXQ73jjzzrtai-8" value="CONFIG ETL" style="shape=image;html=1;verticalAlign=top;verticalLabelPosition=bottom;labelBackgroundColor=#ffffff;imageAspect=0;aspect=fixed;image=https://cdn2.iconfinder.com/data/icons/basic-4/512/settings-128.png" vertex="1" parent="1">
          <mxGeometry x="297" y="250" width="43" height="43" as="geometry" />
        </mxCell>
        <mxCell id="U7zukvNQXQ73jjzzrtai-13" value="" style="edgeStyle=orthogonalEdgeStyle;rounded=0;orthogonalLoop=1;jettySize=auto;html=1;" edge="1" parent="1" source="U7zukvNQXQ73jjzzrtai-9" target="U7zukvNQXQ73jjzzrtai-12">
          <mxGeometry relative="1" as="geometry" />
        </mxCell>
        <mxCell id="U7zukvNQXQ73jjzzrtai-9" value="BOOMI" style="shape=image;html=1;verticalAlign=top;verticalLabelPosition=bottom;labelBackgroundColor=#ffffff;imageAspect=0;aspect=fixed;image=https://cdn3.iconfinder.com/data/icons/strokeline/128/revisi_08-128.png" vertex="1" parent="1">
          <mxGeometry x="340" y="155" width="55" height="55" as="geometry" />
        </mxCell>
        <mxCell id="U7zukvNQXQ73jjzzrtai-15" value="" style="edgeStyle=orthogonalEdgeStyle;rounded=0;orthogonalLoop=1;jettySize=auto;html=1;" edge="1" parent="1" source="U7zukvNQXQ73jjzzrtai-12" target="U7zukvNQXQ73jjzzrtai-14">
          <mxGeometry relative="1" as="geometry" />
        </mxCell>
        <mxCell id="U7zukvNQXQ73jjzzrtai-12" value="&lt;div&gt;AUTOMATIC &lt;br&gt;&lt;/div&gt;&lt;div&gt;PROCESSES&lt;/div&gt;" style="shape=image;html=1;verticalAlign=top;verticalLabelPosition=bottom;labelBackgroundColor=#ffffff;imageAspect=0;aspect=fixed;image=https://cdn2.iconfinder.com/data/icons/basic-4/512/settings-128.png" vertex="1" parent="1">
          <mxGeometry x="440" y="161" width="43" height="43" as="geometry" />
        </mxCell>
        <mxCell id="U7zukvNQXQ73jjzzrtai-17" value="" style="edgeStyle=orthogonalEdgeStyle;rounded=0;orthogonalLoop=1;jettySize=auto;html=1;" edge="1" parent="1" source="U7zukvNQXQ73jjzzrtai-14" target="U7zukvNQXQ73jjzzrtai-16">
          <mxGeometry relative="1" as="geometry" />
        </mxCell>
        <mxCell id="U7zukvNQXQ73jjzzrtai-14" value="&lt;div&gt;CONFIG RULES&lt;/div&gt;&lt;div&gt;&lt;br&gt;&lt;/div&gt;" style="outlineConnect=0;dashed=0;verticalLabelPosition=bottom;verticalAlign=top;align=center;html=1;shape=mxgraph.aws3.config_rule;fillColor=#759C3E;gradientColor=none;" vertex="1" parent="1">
          <mxGeometry x="569.5" y="160" width="35.5" height="45" as="geometry" />
        </mxCell>
        <mxCell id="U7zukvNQXQ73jjzzrtai-16" value="" style="sketch=0;pointerEvents=1;shadow=0;dashed=0;html=1;strokeColor=none;fillColor=#505050;labelPosition=center;verticalLabelPosition=bottom;verticalAlign=top;outlineConnect=0;align=center;shape=mxgraph.office.services.excel_services;" vertex="1" parent="1">
          <mxGeometry x="655" y="158" width="60" height="49" as="geometry" />
        </mxCell>
        <mxCell id="U7zukvNQXQ73jjzzrtai-19" style="edgeStyle=orthogonalEdgeStyle;rounded=0;orthogonalLoop=1;jettySize=auto;html=1;entryX=0;entryY=0.75;entryDx=0;entryDy=0;" edge="1" parent="1" source="U7zukvNQXQ73jjzzrtai-18" target="U7zukvNQXQ73jjzzrtai-8">
          <mxGeometry relative="1" as="geometry" />
        </mxCell>
        <mxCell id="U7zukvNQXQ73jjzzrtai-18" value="" style="verticalLabelPosition=bottom;html=1;verticalAlign=top;strokeWidth=1;align=center;outlineConnect=0;dashed=0;outlineConnect=0;shape=mxgraph.aws3d.oracleServer;fillColor=#ECECEC;strokeColor=#5E5E5E;aspect=fixed;" vertex="1" parent="1">
          <mxGeometry x="200" y="158" width="53" height="61.19" as="geometry" />
        </mxCell>
        <mxCell id="U7zukvNQXQ73jjzzrtai-24" style="edgeStyle=orthogonalEdgeStyle;rounded=0;orthogonalLoop=1;jettySize=auto;html=1;" edge="1" parent="1" source="U7zukvNQXQ73jjzzrtai-20" target="U7zukvNQXQ73jjzzrtai-18">
          <mxGeometry relative="1" as="geometry" />
        </mxCell>
        <mxCell id="U7zukvNQXQ73jjzzrtai-20" value="SCUS AGRESSO" style="shape=image;verticalLabelPosition=bottom;labelBackgroundColor=#ffffff;verticalAlign=top;aspect=fixed;imageAspect=0;image=data:image/svg+xml,PHN2ZyB4bWxuczpjYz0iaHR0cDovL2NyZWF0aXZlY29tbW9ucy5vcmcvbnMjIiB4bWxuczpkYz0iaHR0cDovL3B1cmwub3JnL2RjL2VsZW1lbnRzLzEuMS8iIHhtbG5zOmlua3NjYXBlPSJodHRwOi8vd3d3Lmlua3NjYXBlLm9yZy9uYW1lc3BhY2VzL2lua3NjYXBlIiB4bWxuczpyZGY9Imh0dHA6Ly93d3cudzMub3JnLzE5OTkvMDIvMjItcmRmLXN5bnRheC1ucyMiIHhtbG5zOnNvZGlwb2RpPSJodHRwOi8vc29kaXBvZGkuc291cmNlZm9yZ2UubmV0L0RURC9zb2RpcG9kaS0wLmR0ZCIgeG1sbnM6c3ZnPSJodHRwOi8vd3d3LnczLm9yZy8yMDAwL3N2ZyIgeG1sbnM9Imh0dHA6Ly93d3cudzMub3JnLzIwMDAvc3ZnIiB4bWxuczp4bGluaz0iaHR0cDovL3d3dy53My5vcmcvMTk5OS94bGluayIgdmVyc2lvbj0iMS4xIiBpZD0ic3ZnMTAyNDE4IiBpbmtzY2FwZTp2ZXJzaW9uPSIwLjkyLjMgKDI0MDU1NDYsIDIwMTgtMDMtMTEpIiBzb2RpcG9kaTpkb2NuYW1lPSJvcmFjbGVfZGF0YWJhc2Uuc3ZnIiB4PSIwcHgiIHk9IjBweCIgdmlld0JveD0iMCAwIDMwLjYyIDM0LjkzIiBzdHlsZT0iZW5hYmxlLWJhY2tncm91bmQ6bmV3IDAgMCAzMC42MiAzNC45MzsiIHhtbDpzcGFjZT0icHJlc2VydmUiPiYjeGE7PHNvZGlwb2RpOm5hbWVkdmlldyBib3JkZXJjb2xvcj0iIzY2NjY2NiIgYm9yZGVyb3BhY2l0eT0iMSIgZml0LW1hcmdpbi1ib3R0b209IjAiIGZpdC1tYXJnaW4tbGVmdD0iMCIgZml0LW1hcmdpbi1yaWdodD0iMCIgZml0LW1hcmdpbi10b3A9IjAiIGdyaWR0b2xlcmFuY2U9IjEwIiBndWlkZXRvbGVyYW5jZT0iMTAiIGlkPSJuYW1lZHZpZXcxMDI0MjAiIGlua3NjYXBlOmN1cnJlbnQtbGF5ZXI9InN2ZzEwMjQxOCIgaW5rc2NhcGU6Y3g9IjIwLjQxMzUzMyIgaW5rc2NhcGU6Y3k9IjIzLjI4Njg2NiIgaW5rc2NhcGU6cGFnZW9wYWNpdHk9IjAiIGlua3NjYXBlOnBhZ2VzaGFkb3c9IjIiIGlua3NjYXBlOndpbmRvdy1oZWlnaHQ9IjEwMTciIGlua3NjYXBlOndpbmRvdy1tYXhpbWl6ZWQ9IjEiIGlua3NjYXBlOndpbmRvdy13aWR0aD0iMTkyMCIgaW5rc2NhcGU6d2luZG93LXg9Ii04IiBpbmtzY2FwZTp3aW5kb3cteT0iLTgiIGlua3NjYXBlOnpvb209IjE2LjgyODE1NiIgb2JqZWN0dG9sZXJhbmNlPSIxMCIgcGFnZWNvbG9yPSIjZmZmZmZmIiBzaG93Z3JpZD0iZmFsc2UiPiYjeGE7CTwvc29kaXBvZGk6bmFtZWR2aWV3PiYjeGE7PGcgaWQ9ImcxMDI0MTYiIHRyYW5zZm9ybT0idHJhbnNsYXRlKC0xLjg1NDU3OCwtMS44NTEwNSkiPiYjeGE7CTx0aXRsZSBpZD0idGl0bGUxMDIzODEiPlBhZ2UtMTwvdGl0bGU+JiN4YTsJPGcgaWQ9Imdyb3VwMzYxOS0xIiB0cmFuc2Zvcm09InRyYW5zbGF0ZSgxLjg1NDU1LC0xLjg1NDU1KSI+JiN4YTsJCTx0aXRsZSBpZD0idGl0bGUxMDIzODMiPk9yYWNsZSBEYXRhYmFzZTwvdGl0bGU+JiN4YTsJCTxnIGlkPSJzaGFwZTM2MjAtMiIgdHJhbnNmb3JtPSJ0cmFuc2xhdGUoMCwtMC4xMTA1NDMpIj4mI3hhOwkJCTx0aXRsZSBpZD0idGl0bGUxMDIzODUiPlNoZWV0LjM2MjA8L3RpdGxlPiYjeGE7CQkJPHBhdGggaWQ9InBhdGgxMDIzODciIGlua3NjYXBlOmNvbm5lY3Rvci1jdXJ2YXR1cmU9IjAiIHN0eWxlPSJmaWxsOiNFQjIyMjc7IiBkPSJNMTUuMjUsOS4yNEM2Ljg1LDkuMjQsMCw4LjAyLDAsNi40N3YyOS40MSAgICAgYzAsMS41NCw2Ljg1LDIuNzYsMTUuMjUsMi43NmM4LjQxLDAsMTUuMjYtMS4yMiwxNS4yNi0yLjc2VjYuNDdDMzAuNjIsOC4wMiwyMy43Nyw5LjI0LDE1LjI1LDkuMjR6Ii8+JiN4YTsJCTwvZz4mI3hhOwkJPGcgaWQ9InNoYXBlMzYyMS00Ij4mI3hhOwkJCTx0aXRsZSBpZD0idGl0bGUxMDIzOTAiPlNoZWV0LjM2MjE8L3RpdGxlPiYjeGE7CQkJPHBhdGggaWQ9InBhdGgxMDIzOTIiIGlua3NjYXBlOmNvbm5lY3Rvci1jdXJ2YXR1cmU9IjAiIHN0eWxlPSJmaWxsOiNEODIzMjg7IiBkPSJNMCw2LjQ3djI5LjQxYzAsMS41NCw2Ljg1LDIuNzYsMTUuMjUsMi43NiAgICAgVjkuMjRDNi44NSw5LjEzLDAsNy45MSwwLDYuNDd6Ii8+JiN4YTsJCTwvZz4mI3hhOwkJPGcgaWQ9InNoYXBlMzYyMi02IiB0cmFuc2Zvcm09InRyYW5zbGF0ZSgyOC41MiwtMS40MzcwNikiPiYjeGE7CQkJPHRpdGxlIGlkPSJ0aXRsZTEwMjM5NSI+U2hlZXQuMzYyMjwvdGl0bGU+JiN4YTsJCQk8cGF0aCBpZD0icGF0aDEwMjM5NyIgaW5rc2NhcGU6Y29ubmVjdG9yLWN1cnZhdHVyZT0iMCIgc3R5bGU9ImZpbGw6I0Q4MjMyODsiIGQ9Ik0wLDkuMjR2MjkuNGMxLjMzLTAuNDQsMi4xLTAuODgsMi4xLTEuMzNWNy45MSAgICAgQzIuMSw4LjM1LDEuMzMsOC45LDAsOS4yNHoiLz4mI3hhOwkJPC9nPiYjeGE7CQk8ZyBpZD0ic2hhcGUzNjIzLTgiIHRyYW5zZm9ybT0idHJhbnNsYXRlKDAuMTEwNTQzLC0yOS40MDQ0KSI+JiN4YTsJCQk8dGl0bGUgaWQ9InRpdGxlMTAyNDAwIj5TaGVldC4zNjIzPC90aXRsZT4mI3hhOwkJCTxwYXRoIGlkPSJwYXRoMTAyNDAyIiBpbmtzY2FwZTpjb25uZWN0b3ItY3VydmF0dXJlPSIwIiBzdHlsZT0iZmlsbDojQjkyMzI3OyIgZD0iTTMwLjUxLDM1Ljg4YzAsMS41NC02Ljg1LDIuNzYtMTUuMjYsMi43NiAgICAgQzYuODUsMzguNjQsMCwzNy40MiwwLDM1Ljg4YzAtMS41NSw2Ljg1LTIuNzcsMTUuMjUtMi43N0MyMy42NiwzMy4xMSwzMC41MSwzNC4zMywzMC41MSwzNS44OHoiLz4mI3hhOwkJPC9nPiYjeGE7CQk8ZyBpZD0ic2hhcGUzNjI0LTEwIiB0cmFuc2Zvcm09InRyYW5zbGF0ZSgwLC04LjczMjg4KSI+JiN4YTsJCQk8dGl0bGUgaWQ9InRpdGxlMTAyNDA1Ij5TaGVldC4zNjI0PC90aXRsZT4mI3hhOwkJCTxwYXRoIGlkPSJwYXRoMTAyNDA3IiBpbmtzY2FwZTpjb25uZWN0b3ItY3VydmF0dXJlPSIwIiBzdHlsZT0iZmlsbDojOUExQzIxOyIgZD0iTTAsMzMuNjdjMCwxLjU0LDYuODUsMi43NiwxNS4yNSwyLjc2ICAgICBjOC40MSwwLDE1LjI2LTEuMjIsMTUuMjYtMi43NnYyLjIxYzAsMS41NC02Ljg1LDIuNzYtMTUuMjYsMi43NkM2Ljg1LDM4LjY0LDAsMzcuNDIsMCwzNS44OFYzMy42N3oiLz4mI3hhOwkJPC9nPiYjeGE7CQk8ZyBpZD0ic2hhcGUzNjI1LTEyIiB0cmFuc2Zvcm09InRyYW5zbGF0ZSgwLjExMDU0MywtMTguNDYwNikiPiYjeGE7CQkJPHRpdGxlIGlkPSJ0aXRsZTEwMjQxMCI+U2hlZXQuMzYyNTwvdGl0bGU+JiN4YTsJCQk8cGF0aCBpZD0icGF0aDEwMjQxMiIgaW5rc2NhcGU6Y29ubmVjdG9yLWN1cnZhdHVyZT0iMCIgc3R5bGU9ImZpbGw6IzlBMUMyMTsiIGQ9Ik0zMC41MSwzMy42N2MwLDEuNTQtNi44NSwyLjc2LTE1LjI2LDIuNzYgICAgIEM2Ljg1LDM2LjQzLDAsMzUuMjEsMCwzMy42N3YyLjIxYzAsMS41NCw2Ljg1LDIuNzYsMTUuMjUsMi43NmM4LjQxLDAsMTUuMjYtMS4yMiwxNS4yNi0yLjc2VjMzLjY3eiIvPiYjeGE7CQk8L2c+JiN4YTsJPC9nPiYjeGE7PC9nPiYjeGE7PC9zdmc+;" vertex="1" parent="1">
          <mxGeometry x="119" y="140" width="31" height="35" as="geometry" />
        </mxCell>
        <mxCell id="U7zukvNQXQ73jjzzrtai-25" style="edgeStyle=orthogonalEdgeStyle;rounded=0;orthogonalLoop=1;jettySize=auto;html=1;" edge="1" parent="1" source="U7zukvNQXQ73jjzzrtai-21" target="U7zukvNQXQ73jjzzrtai-18">
          <mxGeometry relative="1" as="geometry" />
        </mxCell>
        <mxCell id="U7zukvNQXQ73jjzzrtai-21" value="AMS" style="shape=image;verticalLabelPosition=bottom;labelBackgroundColor=#ffffff;verticalAlign=top;aspect=fixed;imageAspect=0;image=data:image/svg+xml,PHN2ZyB4bWxuczpjYz0iaHR0cDovL2NyZWF0aXZlY29tbW9ucy5vcmcvbnMjIiB4bWxuczpkYz0iaHR0cDovL3B1cmwub3JnL2RjL2VsZW1lbnRzLzEuMS8iIHhtbG5zOmlua3NjYXBlPSJodHRwOi8vd3d3Lmlua3NjYXBlLm9yZy9uYW1lc3BhY2VzL2lua3NjYXBlIiB4bWxuczpyZGY9Imh0dHA6Ly93d3cudzMub3JnLzE5OTkvMDIvMjItcmRmLXN5bnRheC1ucyMiIHhtbG5zOnNvZGlwb2RpPSJodHRwOi8vc29kaXBvZGkuc291cmNlZm9yZ2UubmV0L0RURC9zb2RpcG9kaS0wLmR0ZCIgeG1sbnM6c3ZnPSJodHRwOi8vd3d3LnczLm9yZy8yMDAwL3N2ZyIgeG1sbnM9Imh0dHA6Ly93d3cudzMub3JnLzIwMDAvc3ZnIiB4bWxuczp4bGluaz0iaHR0cDovL3d3dy53My5vcmcvMTk5OS94bGluayIgdmVyc2lvbj0iMS4xIiBpZD0ic3ZnMTAyNDE4IiBpbmtzY2FwZTp2ZXJzaW9uPSIwLjkyLjMgKDI0MDU1NDYsIDIwMTgtMDMtMTEpIiBzb2RpcG9kaTpkb2NuYW1lPSJvcmFjbGVfZGF0YWJhc2Uuc3ZnIiB4PSIwcHgiIHk9IjBweCIgdmlld0JveD0iMCAwIDMwLjYyIDM0LjkzIiBzdHlsZT0iZW5hYmxlLWJhY2tncm91bmQ6bmV3IDAgMCAzMC42MiAzNC45MzsiIHhtbDpzcGFjZT0icHJlc2VydmUiPiYjeGE7PHNvZGlwb2RpOm5hbWVkdmlldyBib3JkZXJjb2xvcj0iIzY2NjY2NiIgYm9yZGVyb3BhY2l0eT0iMSIgZml0LW1hcmdpbi1ib3R0b209IjAiIGZpdC1tYXJnaW4tbGVmdD0iMCIgZml0LW1hcmdpbi1yaWdodD0iMCIgZml0LW1hcmdpbi10b3A9IjAiIGdyaWR0b2xlcmFuY2U9IjEwIiBndWlkZXRvbGVyYW5jZT0iMTAiIGlkPSJuYW1lZHZpZXcxMDI0MjAiIGlua3NjYXBlOmN1cnJlbnQtbGF5ZXI9InN2ZzEwMjQxOCIgaW5rc2NhcGU6Y3g9IjIwLjQxMzUzMyIgaW5rc2NhcGU6Y3k9IjIzLjI4Njg2NiIgaW5rc2NhcGU6cGFnZW9wYWNpdHk9IjAiIGlua3NjYXBlOnBhZ2VzaGFkb3c9IjIiIGlua3NjYXBlOndpbmRvdy1oZWlnaHQ9IjEwMTciIGlua3NjYXBlOndpbmRvdy1tYXhpbWl6ZWQ9IjEiIGlua3NjYXBlOndpbmRvdy13aWR0aD0iMTkyMCIgaW5rc2NhcGU6d2luZG93LXg9Ii04IiBpbmtzY2FwZTp3aW5kb3cteT0iLTgiIGlua3NjYXBlOnpvb209IjE2LjgyODE1NiIgb2JqZWN0dG9sZXJhbmNlPSIxMCIgcGFnZWNvbG9yPSIjZmZmZmZmIiBzaG93Z3JpZD0iZmFsc2UiPiYjeGE7CTwvc29kaXBvZGk6bmFtZWR2aWV3PiYjeGE7PGcgaWQ9ImcxMDI0MTYiIHRyYW5zZm9ybT0idHJhbnNsYXRlKC0xLjg1NDU3OCwtMS44NTEwNSkiPiYjeGE7CTx0aXRsZSBpZD0idGl0bGUxMDIzODEiPlBhZ2UtMTwvdGl0bGU+JiN4YTsJPGcgaWQ9Imdyb3VwMzYxOS0xIiB0cmFuc2Zvcm09InRyYW5zbGF0ZSgxLjg1NDU1LC0xLjg1NDU1KSI+JiN4YTsJCTx0aXRsZSBpZD0idGl0bGUxMDIzODMiPk9yYWNsZSBEYXRhYmFzZTwvdGl0bGU+JiN4YTsJCTxnIGlkPSJzaGFwZTM2MjAtMiIgdHJhbnNmb3JtPSJ0cmFuc2xhdGUoMCwtMC4xMTA1NDMpIj4mI3hhOwkJCTx0aXRsZSBpZD0idGl0bGUxMDIzODUiPlNoZWV0LjM2MjA8L3RpdGxlPiYjeGE7CQkJPHBhdGggaWQ9InBhdGgxMDIzODciIGlua3NjYXBlOmNvbm5lY3Rvci1jdXJ2YXR1cmU9IjAiIHN0eWxlPSJmaWxsOiNFQjIyMjc7IiBkPSJNMTUuMjUsOS4yNEM2Ljg1LDkuMjQsMCw4LjAyLDAsNi40N3YyOS40MSAgICAgYzAsMS41NCw2Ljg1LDIuNzYsMTUuMjUsMi43NmM4LjQxLDAsMTUuMjYtMS4yMiwxNS4yNi0yLjc2VjYuNDdDMzAuNjIsOC4wMiwyMy43Nyw5LjI0LDE1LjI1LDkuMjR6Ii8+JiN4YTsJCTwvZz4mI3hhOwkJPGcgaWQ9InNoYXBlMzYyMS00Ij4mI3hhOwkJCTx0aXRsZSBpZD0idGl0bGUxMDIzOTAiPlNoZWV0LjM2MjE8L3RpdGxlPiYjeGE7CQkJPHBhdGggaWQ9InBhdGgxMDIzOTIiIGlua3NjYXBlOmNvbm5lY3Rvci1jdXJ2YXR1cmU9IjAiIHN0eWxlPSJmaWxsOiNEODIzMjg7IiBkPSJNMCw2LjQ3djI5LjQxYzAsMS41NCw2Ljg1LDIuNzYsMTUuMjUsMi43NiAgICAgVjkuMjRDNi44NSw5LjEzLDAsNy45MSwwLDYuNDd6Ii8+JiN4YTsJCTwvZz4mI3hhOwkJPGcgaWQ9InNoYXBlMzYyMi02IiB0cmFuc2Zvcm09InRyYW5zbGF0ZSgyOC41MiwtMS40MzcwNikiPiYjeGE7CQkJPHRpdGxlIGlkPSJ0aXRsZTEwMjM5NSI+U2hlZXQuMzYyMjwvdGl0bGU+JiN4YTsJCQk8cGF0aCBpZD0icGF0aDEwMjM5NyIgaW5rc2NhcGU6Y29ubmVjdG9yLWN1cnZhdHVyZT0iMCIgc3R5bGU9ImZpbGw6I0Q4MjMyODsiIGQ9Ik0wLDkuMjR2MjkuNGMxLjMzLTAuNDQsMi4xLTAuODgsMi4xLTEuMzNWNy45MSAgICAgQzIuMSw4LjM1LDEuMzMsOC45LDAsOS4yNHoiLz4mI3hhOwkJPC9nPiYjeGE7CQk8ZyBpZD0ic2hhcGUzNjIzLTgiIHRyYW5zZm9ybT0idHJhbnNsYXRlKDAuMTEwNTQzLC0yOS40MDQ0KSI+JiN4YTsJCQk8dGl0bGUgaWQ9InRpdGxlMTAyNDAwIj5TaGVldC4zNjIzPC90aXRsZT4mI3hhOwkJCTxwYXRoIGlkPSJwYXRoMTAyNDAyIiBpbmtzY2FwZTpjb25uZWN0b3ItY3VydmF0dXJlPSIwIiBzdHlsZT0iZmlsbDojQjkyMzI3OyIgZD0iTTMwLjUxLDM1Ljg4YzAsMS41NC02Ljg1LDIuNzYtMTUuMjYsMi43NiAgICAgQzYuODUsMzguNjQsMCwzNy40MiwwLDM1Ljg4YzAtMS41NSw2Ljg1LTIuNzcsMTUuMjUtMi43N0MyMy42NiwzMy4xMSwzMC41MSwzNC4zMywzMC41MSwzNS44OHoiLz4mI3hhOwkJPC9nPiYjeGE7CQk8ZyBpZD0ic2hhcGUzNjI0LTEwIiB0cmFuc2Zvcm09InRyYW5zbGF0ZSgwLC04LjczMjg4KSI+JiN4YTsJCQk8dGl0bGUgaWQ9InRpdGxlMTAyNDA1Ij5TaGVldC4zNjI0PC90aXRsZT4mI3hhOwkJCTxwYXRoIGlkPSJwYXRoMTAyNDA3IiBpbmtzY2FwZTpjb25uZWN0b3ItY3VydmF0dXJlPSIwIiBzdHlsZT0iZmlsbDojOUExQzIxOyIgZD0iTTAsMzMuNjdjMCwxLjU0LDYuODUsMi43NiwxNS4yNSwyLjc2ICAgICBjOC40MSwwLDE1LjI2LTEuMjIsMTUuMjYtMi43NnYyLjIxYzAsMS41NC02Ljg1LDIuNzYtMTUuMjYsMi43NkM2Ljg1LDM4LjY0LDAsMzcuNDIsMCwzNS44OFYzMy42N3oiLz4mI3hhOwkJPC9nPiYjeGE7CQk8ZyBpZD0ic2hhcGUzNjI1LTEyIiB0cmFuc2Zvcm09InRyYW5zbGF0ZSgwLjExMDU0MywtMTguNDYwNikiPiYjeGE7CQkJPHRpdGxlIGlkPSJ0aXRsZTEwMjQxMCI+U2hlZXQuMzYyNTwvdGl0bGU+JiN4YTsJCQk8cGF0aCBpZD0icGF0aDEwMjQxMiIgaW5rc2NhcGU6Y29ubmVjdG9yLWN1cnZhdHVyZT0iMCIgc3R5bGU9ImZpbGw6IzlBMUMyMTsiIGQ9Ik0zMC41MSwzMy42N2MwLDEuNTQtNi44NSwyLjc2LTE1LjI2LDIuNzYgICAgIEM2Ljg1LDM2LjQzLDAsMzUuMjEsMCwzMy42N3YyLjIxYzAsMS41NCw2Ljg1LDIuNzYsMTUuMjUsMi43NmM4LjQxLDAsMTUuMjYtMS4yMiwxNS4yNi0yLjc2VjMzLjY3eiIvPiYjeGE7CQk8L2c+JiN4YTsJPC9nPiYjeGE7PC9nPiYjeGE7PC9zdmc+;" vertex="1" parent="1">
          <mxGeometry x="119" y="215" width="31" height="35" as="geometry" />
        </mxCell>
        <mxCell id="U7zukvNQXQ73jjzzrtai-26" style="edgeStyle=orthogonalEdgeStyle;rounded=0;orthogonalLoop=1;jettySize=auto;html=1;" edge="1" parent="1" source="U7zukvNQXQ73jjzzrtai-22" target="U7zukvNQXQ73jjzzrtai-18">
          <mxGeometry relative="1" as="geometry" />
        </mxCell>
        <mxCell id="U7zukvNQXQ73jjzzrtai-22" value="PRIME" style="shape=image;verticalLabelPosition=bottom;labelBackgroundColor=#ffffff;verticalAlign=top;aspect=fixed;imageAspect=0;image=data:image/svg+xml,PHN2ZyB4bWxuczpjYz0iaHR0cDovL2NyZWF0aXZlY29tbW9ucy5vcmcvbnMjIiB4bWxuczpkYz0iaHR0cDovL3B1cmwub3JnL2RjL2VsZW1lbnRzLzEuMS8iIHhtbG5zOmlua3NjYXBlPSJodHRwOi8vd3d3Lmlua3NjYXBlLm9yZy9uYW1lc3BhY2VzL2lua3NjYXBlIiB4bWxuczpyZGY9Imh0dHA6Ly93d3cudzMub3JnLzE5OTkvMDIvMjItcmRmLXN5bnRheC1ucyMiIHhtbG5zOnNvZGlwb2RpPSJodHRwOi8vc29kaXBvZGkuc291cmNlZm9yZ2UubmV0L0RURC9zb2RpcG9kaS0wLmR0ZCIgeG1sbnM6c3ZnPSJodHRwOi8vd3d3LnczLm9yZy8yMDAwL3N2ZyIgeG1sbnM9Imh0dHA6Ly93d3cudzMub3JnLzIwMDAvc3ZnIiB4bWxuczp4bGluaz0iaHR0cDovL3d3dy53My5vcmcvMTk5OS94bGluayIgdmVyc2lvbj0iMS4xIiBpZD0ic3ZnMTAyNDE4IiBpbmtzY2FwZTp2ZXJzaW9uPSIwLjkyLjMgKDI0MDU1NDYsIDIwMTgtMDMtMTEpIiBzb2RpcG9kaTpkb2NuYW1lPSJvcmFjbGVfZGF0YWJhc2Uuc3ZnIiB4PSIwcHgiIHk9IjBweCIgdmlld0JveD0iMCAwIDMwLjYyIDM0LjkzIiBzdHlsZT0iZW5hYmxlLWJhY2tncm91bmQ6bmV3IDAgMCAzMC42MiAzNC45MzsiIHhtbDpzcGFjZT0icHJlc2VydmUiPiYjeGE7PHNvZGlwb2RpOm5hbWVkdmlldyBib3JkZXJjb2xvcj0iIzY2NjY2NiIgYm9yZGVyb3BhY2l0eT0iMSIgZml0LW1hcmdpbi1ib3R0b209IjAiIGZpdC1tYXJnaW4tbGVmdD0iMCIgZml0LW1hcmdpbi1yaWdodD0iMCIgZml0LW1hcmdpbi10b3A9IjAiIGdyaWR0b2xlcmFuY2U9IjEwIiBndWlkZXRvbGVyYW5jZT0iMTAiIGlkPSJuYW1lZHZpZXcxMDI0MjAiIGlua3NjYXBlOmN1cnJlbnQtbGF5ZXI9InN2ZzEwMjQxOCIgaW5rc2NhcGU6Y3g9IjIwLjQxMzUzMyIgaW5rc2NhcGU6Y3k9IjIzLjI4Njg2NiIgaW5rc2NhcGU6cGFnZW9wYWNpdHk9IjAiIGlua3NjYXBlOnBhZ2VzaGFkb3c9IjIiIGlua3NjYXBlOndpbmRvdy1oZWlnaHQ9IjEwMTciIGlua3NjYXBlOndpbmRvdy1tYXhpbWl6ZWQ9IjEiIGlua3NjYXBlOndpbmRvdy13aWR0aD0iMTkyMCIgaW5rc2NhcGU6d2luZG93LXg9Ii04IiBpbmtzY2FwZTp3aW5kb3cteT0iLTgiIGlua3NjYXBlOnpvb209IjE2LjgyODE1NiIgb2JqZWN0dG9sZXJhbmNlPSIxMCIgcGFnZWNvbG9yPSIjZmZmZmZmIiBzaG93Z3JpZD0iZmFsc2UiPiYjeGE7CTwvc29kaXBvZGk6bmFtZWR2aWV3PiYjeGE7PGcgaWQ9ImcxMDI0MTYiIHRyYW5zZm9ybT0idHJhbnNsYXRlKC0xLjg1NDU3OCwtMS44NTEwNSkiPiYjeGE7CTx0aXRsZSBpZD0idGl0bGUxMDIzODEiPlBhZ2UtMTwvdGl0bGU+JiN4YTsJPGcgaWQ9Imdyb3VwMzYxOS0xIiB0cmFuc2Zvcm09InRyYW5zbGF0ZSgxLjg1NDU1LC0xLjg1NDU1KSI+JiN4YTsJCTx0aXRsZSBpZD0idGl0bGUxMDIzODMiPk9yYWNsZSBEYXRhYmFzZTwvdGl0bGU+JiN4YTsJCTxnIGlkPSJzaGFwZTM2MjAtMiIgdHJhbnNmb3JtPSJ0cmFuc2xhdGUoMCwtMC4xMTA1NDMpIj4mI3hhOwkJCTx0aXRsZSBpZD0idGl0bGUxMDIzODUiPlNoZWV0LjM2MjA8L3RpdGxlPiYjeGE7CQkJPHBhdGggaWQ9InBhdGgxMDIzODciIGlua3NjYXBlOmNvbm5lY3Rvci1jdXJ2YXR1cmU9IjAiIHN0eWxlPSJmaWxsOiNFQjIyMjc7IiBkPSJNMTUuMjUsOS4yNEM2Ljg1LDkuMjQsMCw4LjAyLDAsNi40N3YyOS40MSAgICAgYzAsMS41NCw2Ljg1LDIuNzYsMTUuMjUsMi43NmM4LjQxLDAsMTUuMjYtMS4yMiwxNS4yNi0yLjc2VjYuNDdDMzAuNjIsOC4wMiwyMy43Nyw5LjI0LDE1LjI1LDkuMjR6Ii8+JiN4YTsJCTwvZz4mI3hhOwkJPGcgaWQ9InNoYXBlMzYyMS00Ij4mI3hhOwkJCTx0aXRsZSBpZD0idGl0bGUxMDIzOTAiPlNoZWV0LjM2MjE8L3RpdGxlPiYjeGE7CQkJPHBhdGggaWQ9InBhdGgxMDIzOTIiIGlua3NjYXBlOmNvbm5lY3Rvci1jdXJ2YXR1cmU9IjAiIHN0eWxlPSJmaWxsOiNEODIzMjg7IiBkPSJNMCw2LjQ3djI5LjQxYzAsMS41NCw2Ljg1LDIuNzYsMTUuMjUsMi43NiAgICAgVjkuMjRDNi44NSw5LjEzLDAsNy45MSwwLDYuNDd6Ii8+JiN4YTsJCTwvZz4mI3hhOwkJPGcgaWQ9InNoYXBlMzYyMi02IiB0cmFuc2Zvcm09InRyYW5zbGF0ZSgyOC41MiwtMS40MzcwNikiPiYjeGE7CQkJPHRpdGxlIGlkPSJ0aXRsZTEwMjM5NSI+U2hlZXQuMzYyMjwvdGl0bGU+JiN4YTsJCQk8cGF0aCBpZD0icGF0aDEwMjM5NyIgaW5rc2NhcGU6Y29ubmVjdG9yLWN1cnZhdHVyZT0iMCIgc3R5bGU9ImZpbGw6I0Q4MjMyODsiIGQ9Ik0wLDkuMjR2MjkuNGMxLjMzLTAuNDQsMi4xLTAuODgsMi4xLTEuMzNWNy45MSAgICAgQzIuMSw4LjM1LDEuMzMsOC45LDAsOS4yNHoiLz4mI3hhOwkJPC9nPiYjeGE7CQk8ZyBpZD0ic2hhcGUzNjIzLTgiIHRyYW5zZm9ybT0idHJhbnNsYXRlKDAuMTEwNTQzLC0yOS40MDQ0KSI+JiN4YTsJCQk8dGl0bGUgaWQ9InRpdGxlMTAyNDAwIj5TaGVldC4zNjIzPC90aXRsZT4mI3hhOwkJCTxwYXRoIGlkPSJwYXRoMTAyNDAyIiBpbmtzY2FwZTpjb25uZWN0b3ItY3VydmF0dXJlPSIwIiBzdHlsZT0iZmlsbDojQjkyMzI3OyIgZD0iTTMwLjUxLDM1Ljg4YzAsMS41NC02Ljg1LDIuNzYtMTUuMjYsMi43NiAgICAgQzYuODUsMzguNjQsMCwzNy40MiwwLDM1Ljg4YzAtMS41NSw2Ljg1LTIuNzcsMTUuMjUtMi43N0MyMy42NiwzMy4xMSwzMC41MSwzNC4zMywzMC41MSwzNS44OHoiLz4mI3hhOwkJPC9nPiYjeGE7CQk8ZyBpZD0ic2hhcGUzNjI0LTEwIiB0cmFuc2Zvcm09InRyYW5zbGF0ZSgwLC04LjczMjg4KSI+JiN4YTsJCQk8dGl0bGUgaWQ9InRpdGxlMTAyNDA1Ij5TaGVldC4zNjI0PC90aXRsZT4mI3hhOwkJCTxwYXRoIGlkPSJwYXRoMTAyNDA3IiBpbmtzY2FwZTpjb25uZWN0b3ItY3VydmF0dXJlPSIwIiBzdHlsZT0iZmlsbDojOUExQzIxOyIgZD0iTTAsMzMuNjdjMCwxLjU0LDYuODUsMi43NiwxNS4yNSwyLjc2ICAgICBjOC40MSwwLDE1LjI2LTEuMjIsMTUuMjYtMi43NnYyLjIxYzAsMS41NC02Ljg1LDIuNzYtMTUuMjYsMi43NkM2Ljg1LDM4LjY0LDAsMzcuNDIsMCwzNS44OFYzMy42N3oiLz4mI3hhOwkJPC9nPiYjeGE7CQk8ZyBpZD0ic2hhcGUzNjI1LTEyIiB0cmFuc2Zvcm09InRyYW5zbGF0ZSgwLjExMDU0MywtMTguNDYwNikiPiYjeGE7CQkJPHRpdGxlIGlkPSJ0aXRsZTEwMjQxMCI+U2hlZXQuMzYyNTwvdGl0bGU+JiN4YTsJCQk8cGF0aCBpZD0icGF0aDEwMjQxMiIgaW5rc2NhcGU6Y29ubmVjdG9yLWN1cnZhdHVyZT0iMCIgc3R5bGU9ImZpbGw6IzlBMUMyMTsiIGQ9Ik0zMC41MSwzMy42N2MwLDEuNTQtNi44NSwyLjc2LTE1LjI2LDIuNzYgICAgIEM2Ljg1LDM2LjQzLDAsMzUuMjEsMCwzMy42N3YyLjIxYzAsMS41NCw2Ljg1LDIuNzYsMTUuMjUsMi43NmM4LjQxLDAsMTUuMjYtMS4yMiwxNS4yNi0yLjc2VjMzLjY3eiIvPiYjeGE7CQk8L2c+JiN4YTsJPC9nPiYjeGE7PC9nPiYjeGE7PC9zdmc+;" vertex="1" parent="1">
          <mxGeometry x="119" y="280" width="31" height="35" as="geometry" />
        </mxCell>
        <mxCell id="U7zukvNQXQ73jjzzrtai-27" style="edgeStyle=orthogonalEdgeStyle;rounded=0;orthogonalLoop=1;jettySize=auto;html=1;" edge="1" parent="1" source="U7zukvNQXQ73jjzzrtai-23" target="U7zukvNQXQ73jjzzrtai-18">
          <mxGeometry relative="1" as="geometry" />
        </mxCell>
        <mxCell id="U7zukvNQXQ73jjzzrtai-23" value="HRIS" style="shape=image;verticalLabelPosition=bottom;labelBackgroundColor=#ffffff;verticalAlign=top;aspect=fixed;imageAspect=0;image=data:image/svg+xml,PHN2ZyB4bWxuczpjYz0iaHR0cDovL2NyZWF0aXZlY29tbW9ucy5vcmcvbnMjIiB4bWxuczpkYz0iaHR0cDovL3B1cmwub3JnL2RjL2VsZW1lbnRzLzEuMS8iIHhtbG5zOmlua3NjYXBlPSJodHRwOi8vd3d3Lmlua3NjYXBlLm9yZy9uYW1lc3BhY2VzL2lua3NjYXBlIiB4bWxuczpyZGY9Imh0dHA6Ly93d3cudzMub3JnLzE5OTkvMDIvMjItcmRmLXN5bnRheC1ucyMiIHhtbG5zOnNvZGlwb2RpPSJodHRwOi8vc29kaXBvZGkuc291cmNlZm9yZ2UubmV0L0RURC9zb2RpcG9kaS0wLmR0ZCIgeG1sbnM6c3ZnPSJodHRwOi8vd3d3LnczLm9yZy8yMDAwL3N2ZyIgeG1sbnM9Imh0dHA6Ly93d3cudzMub3JnLzIwMDAvc3ZnIiB4bWxuczp4bGluaz0iaHR0cDovL3d3dy53My5vcmcvMTk5OS94bGluayIgdmVyc2lvbj0iMS4xIiBpZD0ic3ZnMTAyNDE4IiBpbmtzY2FwZTp2ZXJzaW9uPSIwLjkyLjMgKDI0MDU1NDYsIDIwMTgtMDMtMTEpIiBzb2RpcG9kaTpkb2NuYW1lPSJvcmFjbGVfZGF0YWJhc2Uuc3ZnIiB4PSIwcHgiIHk9IjBweCIgdmlld0JveD0iMCAwIDMwLjYyIDM0LjkzIiBzdHlsZT0iZW5hYmxlLWJhY2tncm91bmQ6bmV3IDAgMCAzMC42MiAzNC45MzsiIHhtbDpzcGFjZT0icHJlc2VydmUiPiYjeGE7PHNvZGlwb2RpOm5hbWVkdmlldyBib3JkZXJjb2xvcj0iIzY2NjY2NiIgYm9yZGVyb3BhY2l0eT0iMSIgZml0LW1hcmdpbi1ib3R0b209IjAiIGZpdC1tYXJnaW4tbGVmdD0iMCIgZml0LW1hcmdpbi1yaWdodD0iMCIgZml0LW1hcmdpbi10b3A9IjAiIGdyaWR0b2xlcmFuY2U9IjEwIiBndWlkZXRvbGVyYW5jZT0iMTAiIGlkPSJuYW1lZHZpZXcxMDI0MjAiIGlua3NjYXBlOmN1cnJlbnQtbGF5ZXI9InN2ZzEwMjQxOCIgaW5rc2NhcGU6Y3g9IjIwLjQxMzUzMyIgaW5rc2NhcGU6Y3k9IjIzLjI4Njg2NiIgaW5rc2NhcGU6cGFnZW9wYWNpdHk9IjAiIGlua3NjYXBlOnBhZ2VzaGFkb3c9IjIiIGlua3NjYXBlOndpbmRvdy1oZWlnaHQ9IjEwMTciIGlua3NjYXBlOndpbmRvdy1tYXhpbWl6ZWQ9IjEiIGlua3NjYXBlOndpbmRvdy13aWR0aD0iMTkyMCIgaW5rc2NhcGU6d2luZG93LXg9Ii04IiBpbmtzY2FwZTp3aW5kb3cteT0iLTgiIGlua3NjYXBlOnpvb209IjE2LjgyODE1NiIgb2JqZWN0dG9sZXJhbmNlPSIxMCIgcGFnZWNvbG9yPSIjZmZmZmZmIiBzaG93Z3JpZD0iZmFsc2UiPiYjeGE7CTwvc29kaXBvZGk6bmFtZWR2aWV3PiYjeGE7PGcgaWQ9ImcxMDI0MTYiIHRyYW5zZm9ybT0idHJhbnNsYXRlKC0xLjg1NDU3OCwtMS44NTEwNSkiPiYjeGE7CTx0aXRsZSBpZD0idGl0bGUxMDIzODEiPlBhZ2UtMTwvdGl0bGU+JiN4YTsJPGcgaWQ9Imdyb3VwMzYxOS0xIiB0cmFuc2Zvcm09InRyYW5zbGF0ZSgxLjg1NDU1LC0xLjg1NDU1KSI+JiN4YTsJCTx0aXRsZSBpZD0idGl0bGUxMDIzODMiPk9yYWNsZSBEYXRhYmFzZTwvdGl0bGU+JiN4YTsJCTxnIGlkPSJzaGFwZTM2MjAtMiIgdHJhbnNmb3JtPSJ0cmFuc2xhdGUoMCwtMC4xMTA1NDMpIj4mI3hhOwkJCTx0aXRsZSBpZD0idGl0bGUxMDIzODUiPlNoZWV0LjM2MjA8L3RpdGxlPiYjeGE7CQkJPHBhdGggaWQ9InBhdGgxMDIzODciIGlua3NjYXBlOmNvbm5lY3Rvci1jdXJ2YXR1cmU9IjAiIHN0eWxlPSJmaWxsOiNFQjIyMjc7IiBkPSJNMTUuMjUsOS4yNEM2Ljg1LDkuMjQsMCw4LjAyLDAsNi40N3YyOS40MSAgICAgYzAsMS41NCw2Ljg1LDIuNzYsMTUuMjUsMi43NmM4LjQxLDAsMTUuMjYtMS4yMiwxNS4yNi0yLjc2VjYuNDdDMzAuNjIsOC4wMiwyMy43Nyw5LjI0LDE1LjI1LDkuMjR6Ii8+JiN4YTsJCTwvZz4mI3hhOwkJPGcgaWQ9InNoYXBlMzYyMS00Ij4mI3hhOwkJCTx0aXRsZSBpZD0idGl0bGUxMDIzOTAiPlNoZWV0LjM2MjE8L3RpdGxlPiYjeGE7CQkJPHBhdGggaWQ9InBhdGgxMDIzOTIiIGlua3NjYXBlOmNvbm5lY3Rvci1jdXJ2YXR1cmU9IjAiIHN0eWxlPSJmaWxsOiNEODIzMjg7IiBkPSJNMCw2LjQ3djI5LjQxYzAsMS41NCw2Ljg1LDIuNzYsMTUuMjUsMi43NiAgICAgVjkuMjRDNi44NSw5LjEzLDAsNy45MSwwLDYuNDd6Ii8+JiN4YTsJCTwvZz4mI3hhOwkJPGcgaWQ9InNoYXBlMzYyMi02IiB0cmFuc2Zvcm09InRyYW5zbGF0ZSgyOC41MiwtMS40MzcwNikiPiYjeGE7CQkJPHRpdGxlIGlkPSJ0aXRsZTEwMjM5NSI+U2hlZXQuMzYyMjwvdGl0bGU+JiN4YTsJCQk8cGF0aCBpZD0icGF0aDEwMjM5NyIgaW5rc2NhcGU6Y29ubmVjdG9yLWN1cnZhdHVyZT0iMCIgc3R5bGU9ImZpbGw6I0Q4MjMyODsiIGQ9Ik0wLDkuMjR2MjkuNGMxLjMzLTAuNDQsMi4xLTAuODgsMi4xLTEuMzNWNy45MSAgICAgQzIuMSw4LjM1LDEuMzMsOC45LDAsOS4yNHoiLz4mI3hhOwkJPC9nPiYjeGE7CQk8ZyBpZD0ic2hhcGUzNjIzLTgiIHRyYW5zZm9ybT0idHJhbnNsYXRlKDAuMTEwNTQzLC0yOS40MDQ0KSI+JiN4YTsJCQk8dGl0bGUgaWQ9InRpdGxlMTAyNDAwIj5TaGVldC4zNjIzPC90aXRsZT4mI3hhOwkJCTxwYXRoIGlkPSJwYXRoMTAyNDAyIiBpbmtzY2FwZTpjb25uZWN0b3ItY3VydmF0dXJlPSIwIiBzdHlsZT0iZmlsbDojQjkyMzI3OyIgZD0iTTMwLjUxLDM1Ljg4YzAsMS41NC02Ljg1LDIuNzYtMTUuMjYsMi43NiAgICAgQzYuODUsMzguNjQsMCwzNy40MiwwLDM1Ljg4YzAtMS41NSw2Ljg1LTIuNzcsMTUuMjUtMi43N0MyMy42NiwzMy4xMSwzMC41MSwzNC4zMywzMC41MSwzNS44OHoiLz4mI3hhOwkJPC9nPiYjeGE7CQk8ZyBpZD0ic2hhcGUzNjI0LTEwIiB0cmFuc2Zvcm09InRyYW5zbGF0ZSgwLC04LjczMjg4KSI+JiN4YTsJCQk8dGl0bGUgaWQ9InRpdGxlMTAyNDA1Ij5TaGVldC4zNjI0PC90aXRsZT4mI3hhOwkJCTxwYXRoIGlkPSJwYXRoMTAyNDA3IiBpbmtzY2FwZTpjb25uZWN0b3ItY3VydmF0dXJlPSIwIiBzdHlsZT0iZmlsbDojOUExQzIxOyIgZD0iTTAsMzMuNjdjMCwxLjU0LDYuODUsMi43NiwxNS4yNSwyLjc2ICAgICBjOC40MSwwLDE1LjI2LTEuMjIsMTUuMjYtMi43NnYyLjIxYzAsMS41NC02Ljg1LDIuNzYtMTUuMjYsMi43NkM2Ljg1LDM4LjY0LDAsMzcuNDIsMCwzNS44OFYzMy42N3oiLz4mI3hhOwkJPC9nPiYjeGE7CQk8ZyBpZD0ic2hhcGUzNjI1LTEyIiB0cmFuc2Zvcm09InRyYW5zbGF0ZSgwLjExMDU0MywtMTguNDYwNikiPiYjeGE7CQkJPHRpdGxlIGlkPSJ0aXRsZTEwMjQxMCI+U2hlZXQuMzYyNTwvdGl0bGU+JiN4YTsJCQk8cGF0aCBpZD0icGF0aDEwMjQxMiIgaW5rc2NhcGU6Y29ubmVjdG9yLWN1cnZhdHVyZT0iMCIgc3R5bGU9ImZpbGw6IzlBMUMyMTsiIGQ9Ik0zMC41MSwzMy42N2MwLDEuNTQtNi44NSwyLjc2LTE1LjI2LDIuNzYgICAgIEM2Ljg1LDM2LjQzLDAsMzUuMjEsMCwzMy42N3YyLjIxYzAsMS41NCw2Ljg1LDIuNzYsMTUuMjUsMi43NmM4LjQxLDAsMTUuMjYtMS4yMiwxNS4yNi0yLjc2VjMzLjY3eiIvPiYjeGE7CQk8L2c+JiN4YTsJPC9nPiYjeGE7PC9nPiYjeGE7PC9zdmc+;" vertex="1" parent="1">
          <mxGeometry x="119" y="345" width="31" height="35" as="geometry" />
        </mxCell>
      </root>
    </mxGraphModel>
  </diagram>
</mxfile>
